<?xml version="1.0" encoding="utf-8"?>
<!-- Generator: Adobe Illustrator 22.0.1, SVG Export Plug-In . SVG Version: 6.00 Build 0)  -->
<svg version="1.1" id="Capa_1" xmlns="http://www.w3.org/2000/svg" xmlns:xlink="http://www.w3.org/1999/xlink" x="0px" y="0px"
	 viewBox="0 0 60 60" style="enable-background:new 0 0 60 60;" xml:space="preserve">
<style type="text/css">
	.st0{fill:none;stroke:#FFFFFF;stroke-width:10;stroke-miterlimit:10;}
	.st1{fill:#FFFFFF;}
</style>
<g>
	<line class="st0" x1="30.6" y1="14.6" x2="30.6" y2="46.3"/>
</g>
<g>
	<line class="st0" x1="9.5" y1="14.6" x2="9.5" y2="46.3"/>
</g>
<g>
	<line class="st0" x1="50.5" y1="13.7" x2="50.5" y2="45.4"/>
</g>
<g>
	<path class="st1" d="M54.3,18.1H5.7c-3.1,0-5.7-2.6-5.7-5.7v-0.8c0-3.1,2.6-5.7,5.7-5.7h48.6c3.1,0,5.7,2.6,5.7,5.7v0.8
		C60,15.5,57.4,18.1,54.3,18.1z"/>
</g>
<g>
	<path class="st1" d="M54.3,54.3H5.7c-3.1,0-5.7-2.6-5.7-5.7v-0.8c0-3.1,2.6-5.7,5.7-5.7h48.6c3.1,0,5.7,2.6,5.7,5.7v0.8
		C60,51.7,57.4,54.3,54.3,54.3z"/>
</g>
</svg>
