<?xml version="1.0" encoding="utf-8"?>
<!-- Generator: Adobe Illustrator 22.0.1, SVG Export Plug-In . SVG Version: 6.00 Build 0)  -->
<svg version="1.1" xmlns="http://www.w3.org/2000/svg" xmlns:xlink="http://www.w3.org/1999/xlink" x="0px" y="0px"
	 viewBox="0 0 512 512" style="enable-background:new 0 0 512 512;" xml:space="preserve">
<style type="text/css">
	.st0{fill:#FFFFFF;}
</style>
<g id="Ebene_2">
</g>
<g id="Capa_1">
	<g>
		<g>
			<path class="st0" d="M422.8,0H89.4C40,0,0.1,40,0,89.2v333.4C0,472,40,511.9,89.2,512h333.4c49.4,0,89.2-40,89.4-89.2V89.4
				C512,40,472,0,422.8,0z M487.4,422.8c0,35.7-28.9,64.6-64.6,64.6H89.4c-35.7,0-64.6-28.9-64.7-64.6V89.4
				c0-35.7,28.9-64.6,64.6-64.7h333.4c35.7,0,64.6,28.9,64.7,64.6V422.8z"/>
		</g>
	</g>
	<path class="st0" d="M160.4,407.2l-46.7,46.7c-4.7,4.7-12.3,4.7-17,0L50,407.2c-4.7-4.7-4.7-12.3,0-17l46.7-46.7
		c4.7-4.7,12.3-4.7,17,0l46.7,46.7C165.1,394.9,165.1,402.5,160.4,407.2z"/>
	<path class="st0" d="M312.3,407.2l-46.7,46.7c-4.7,4.7-12.3,4.7-17,0l-46.7-46.7c-4.7-4.7-4.7-12.3,0-17l46.7-46.7
		c4.7-4.7,12.3-4.7,17,0l46.7,46.7C317,394.9,317,402.5,312.3,407.2z"/>
	<path class="st0" d="M464.2,407.2l-46.7,46.7c-4.7,4.7-12.3,4.7-17,0l-46.7-46.7c-4.7-4.7-4.7-12.3,0-17l46.7-46.7
		c4.7-4.7,12.3-4.7,17,0l46.7,46.7C468.9,394.9,468.9,402.5,464.2,407.2z"/>
	<path class="st0" d="M236.4,311.2l-46.7,46.7c-4.7,4.7-12.3,4.7-17,0L126,311.2c-4.7-4.7-4.7-12.3,0-17l46.7-46.7
		c4.7-4.7,12.3-4.7,17,0l46.7,46.7C241,298.9,241,306.6,236.4,311.2z"/>
	<path class="st0" d="M387.3,311.1l-46.7,46.7c-4.7,4.7-12.3,4.7-17,0l-46.7-46.7c-4.7-4.7-4.7-12.3,0-17l46.7-46.7
		c4.7-4.7,12.3-4.7,17,0l46.7,46.7C392,298.8,392,306.5,387.3,311.1z"/>
	<path class="st0" d="M160.4,204.3L113.7,251c-4.7,4.7-12.3,4.7-17,0L50,204.3c-4.7-4.7-4.7-12.3,0-17l46.7-46.7
		c4.7-4.7,12.3-4.7,17,0l46.7,46.7C165.1,192,165.1,199.6,160.4,204.3z"/>
	<path class="st0" d="M312.3,204.3L265.6,251c-4.7,4.7-12.3,4.7-17,0l-46.7-46.7c-4.7-4.7-4.7-12.3,0-17l46.7-46.7
		c4.7-4.7,12.3-4.7,17,0l46.7,46.7C317,192,317,199.6,312.3,204.3z"/>
	<path class="st0" d="M464.2,204.3L417.5,251c-4.7,4.7-12.3,4.7-17,0l-46.7-46.7c-4.7-4.7-4.7-12.3,0-17l46.7-46.7
		c4.7-4.7,12.3-4.7,17,0l46.7,46.7C468.9,192,468.9,199.6,464.2,204.3z"/>
</g>
</svg>
