<?xml version="1.0" encoding="utf-8"?>
<!-- Generator: Adobe Illustrator 22.0.1, SVG Export Plug-In . SVG Version: 6.00 Build 0)  -->
<svg version="1.1" id="Capa_1" xmlns="http://www.w3.org/2000/svg" xmlns:xlink="http://www.w3.org/1999/xlink" x="0px" y="0px"
	 viewBox="0 0 60 60" style="enable-background:new 0 0 60 60;" xml:space="preserve">
<style type="text/css">
	.st0{fill:none;stroke:#FFFFFF;stroke-width:6;stroke-miterlimit:10;}
	.st1{fill:#FFFFFF;}
</style>
<g>
	<line class="st0" x1="22.7" y1="14.6" x2="22.7" y2="46.3"/>
</g>
<g>
	<line class="st0" x1="9" y1="14.6" x2="9" y2="46.3"/>
</g>
<g>
	<line class="st0" x1="36.9" y1="14.6" x2="36.9" y2="46.3"/>
</g>
<g>
	<line class="st0" x1="50.1" y1="13.7" x2="50.1" y2="45.4"/>
</g>
<g>
	<path class="st1" d="M53.9,8.2c1.1,0,2.1,0.9,2.1,2.1s-0.9,2.1-2.1,2.1H6.1c-1.1,0-2.1-0.9-2.1-2.1S5,8.2,6.1,8.2H53.9 M53.9,4.2
		H6.1c-3.3,0-6.1,2.7-6.1,6.1s2.7,6.1,6.1,6.1h47.8c3.3,0,6.1-2.7,6.1-6.1S57.2,4.2,53.9,4.2L53.9,4.2z"/>
</g>
<g>
	<path class="st1" d="M53.9,47.6c1.1,0,2.1,0.9,2.1,2.1c0,1.1-0.9,2.1-2.1,2.1H6.1c-1.1,0-2.1-0.9-2.1-2.1c0-1.1,0.9-2.1,2.1-2.1
		H53.9 M53.9,43.6H6.1c-3.3,0-6.1,2.7-6.1,6.1s2.7,6.1,6.1,6.1h47.8c3.3,0,6.1-2.7,6.1-6.1S57.2,43.6,53.9,43.6L53.9,43.6z"/>
</g>
</svg>
