<?xml version="1.0" encoding="utf-8"?>
<!-- Generator: Adobe Illustrator 22.0.1, SVG Export Plug-In . SVG Version: 6.00 Build 0)  -->
<svg version="1.1" id="Capa_1" xmlns="http://www.w3.org/2000/svg" xmlns:xlink="http://www.w3.org/1999/xlink" x="0px" y="0px"
	 viewBox="0 0 60 60" style="enable-background:new 0 0 60 60;" xml:space="preserve">
<style type="text/css">
	.st0{fill:#193651;}
	.st1{fill:#27A2DE;}
	.st2{fill:#3888AE;}
	.st3{fill:#FFBF5D;}
</style>
<g>
	<g>
		<path class="st0" d="M59,0H1C0.4,0,0,0.4,0,1v5v24v5v24c0,0.6,0.4,1,1,1h58c0.6,0,1-0.4,1-1V35v-5V6V1C60,0.4,59.6,0,59,0z M2,34
			v-3h56v3H2z M19,36v22h-8V36H19z M21,14V7h8v7h2V7h8v7h2V7h8v22h-8v-5h-2v5h-8v-5h-2v5h-8v-5h-2v5h-8V7h8v7H21z M58,29h-7V7h7V29z
			 M9,29H2V7h7V29z M2,2h56v3H2V2z M2,36h7v22H2V36z M58,58h-7v-4h-2v4h-8v-4h-2v4h-8v-4h-2v4h-8V36h8v8h2v-8h8v8h2v-8h8v8h2v-8h7
			V58z"/>
		<rect x="29" y="46" class="st1" width="2" height="2"/>
		<rect x="33" y="46" class="st1" width="2" height="2"/>
		<rect x="37" y="46" class="st1" width="2" height="2"/>
		<rect x="41" y="46" class="st1" width="2" height="2"/>
		<rect x="45" y="46" class="st1" width="2" height="2"/>
		<rect x="49" y="46" class="st1" width="2" height="2"/>
		<rect x="29" y="50" class="st1" width="2" height="2"/>
		<rect x="33" y="50" class="st1" width="2" height="2"/>
		<rect x="37" y="50" class="st1" width="2" height="2"/>
		<rect x="41" y="50" class="st1" width="2" height="2"/>
		<rect x="45" y="50" class="st1" width="2" height="2"/>
		<rect x="49" y="50" class="st1" width="2" height="2"/>
		<rect x="19" y="16" class="st1" width="2" height="2"/>
		<rect x="23" y="16" class="st1" width="2" height="2"/>
		<rect x="27" y="16" class="st1" width="2" height="2"/>
		<rect x="31" y="16" class="st1" width="2" height="2"/>
		<rect x="35" y="16" class="st1" width="2" height="2"/>
		<rect x="39" y="16" class="st2" width="2" height="2"/>
		<rect x="19" y="20" class="st1" width="2" height="2"/>
		<rect x="23" y="20" class="st1" width="2" height="2"/>
		<rect x="27" y="20" class="st1" width="2" height="2"/>
		<rect x="31" y="20" class="st1" width="2" height="2"/>
		<rect x="35" y="20" class="st1" width="2" height="2"/>
		<rect x="39" y="20" class="st1" width="2" height="2"/>
		<rect x="2" y="2" class="st3" width="56" height="3"/>
		<rect x="2" y="31" class="st3" width="56" height="3"/>
	</g>
</g>
</svg>
