<?xml version="1.0" encoding="iso-8859-1"?>
<!-- Generator: Adobe Illustrator 19.0.0, SVG Export Plug-In . SVG Version: 6.00 Build 0)  -->
<svg xmlns="http://www.w3.org/2000/svg" xmlns:xlink="http://www.w3.org/1999/xlink" version="1.1" id="Capa_1" x="0px" y="0px" viewBox="0 0 511.998 511.998" style="enable-background:new 0 0 511.998 511.998;" xml:space="preserve" width="512px" height="512px">
<g>
	<g>
		<path d="M448.385,320.644h-6.043l-163.238-92.265c0.277-1.44,0.427-2.925,0.427-4.445c0-10.07-6.373-18.989-15.877-22.257    c-0.07-0.121-0.155-0.356-0.155-0.627v-10.453c4.193-1.353,7.693-4.452,9.492-8.648l17.177-40.08    c2.061-4.808,1.572-10.286-1.308-14.654c-2.199-3.334-5.543-5.638-9.329-6.543V7.5c0-4.142-3.358-7.5-7.5-7.5    c-4.142,0-7.5,3.358-7.5,7.5v90.301c-2.647-1.034-5.523-1.608-8.532-1.608c-3.009,0-5.885,0.574-8.532,1.608V7.5    c0-4.142-3.358-7.5-7.5-7.5c-4.142,0-7.5,3.358-7.5,7.5v113.173c-3.786,0.906-7.13,3.209-9.329,6.543    c-2.879,4.367-3.369,9.845-1.308,14.653l17.177,40.081c1.798,4.196,5.299,7.294,9.492,8.647v10.453    c0,6.802,4.104,12.745,10.211,14.789c3.481,1.166,5.821,4.418,5.821,8.094c0,4.705-3.828,8.532-8.532,8.532    c-4.704,0-8.532-3.828-8.532-8.532c0-4.142-3.358-7.5-7.5-7.5c-4.142,0-7.5,3.358-7.5,7.5c0,1.52,0.15,3.004,0.427,4.445    L69.656,320.644h-6.043c-8.556,0-15.516,6.96-15.516,15.516v160.322c0,8.556,6.96,15.516,15.516,15.516h384.772    c8.556,0,15.516-6.96,15.516-15.516V336.16C463.901,327.604,456.941,320.644,448.385,320.644z M247.467,119.725    c0-4.704,3.827-8.532,8.532-8.532c4.705,0,8.532,3.828,8.532,8.532v0.516h-17.064V119.725z M259.203,176.04    c-0.082,0.19-0.268,0.313-0.474,0.313h-5.461c-0.207,0-0.393-0.123-0.474-0.313l-17.177-40.08    c-0.038-0.089-0.109-0.255,0.043-0.487c0.153-0.232,0.333-0.232,0.431-0.232h39.815c0.097,0,0.278,0,0.431,0.232    s0.082,0.398,0.043,0.487L259.203,176.04z M240.284,241.432c4.17,3.749,9.68,6.035,15.715,6.035    c6.035,0,11.545-2.286,15.715-6.034l140.144,79.211H100.14L240.284,241.432z M128.257,496.998h-25.081V480.45    c0-4.142-3.358-7.5-7.5-7.5c-4.142,0-7.5,3.358-7.5,7.5v16.548H63.613c-0.285,0-0.517-0.232-0.517-0.517V336.16    c0-0.285,0.231-0.516,0.516-0.516h24.564v112.742c0,4.142,3.358,7.5,7.5,7.5c4.142,0,7.5-3.358,7.5-7.5V335.644h25.081V496.998z     M168.337,496.998h-25.079V335.644h25.079V496.998z M208.419,496.998h-25.082V335.644h25.082V496.998z M248.498,496.998h-25.08    V335.644h25.08V496.998z M288.579,496.998h-25.081V335.644h25.081V496.998z M328.66,496.998h-25.081V335.644h25.081V496.998z     M368.74,496.998h-25.08V335.644h25.08V496.998z M448.901,496.481c0,0.285-0.231,0.516-0.516,0.516h-24.564V384.256    c0-4.142-3.358-7.5-7.5-7.5c-4.142,0-7.5,3.358-7.5,7.5v112.741H383.74V335.644h25.081v16.548c0,4.142,3.358,7.5,7.5,7.5    c4.142,0,7.5-3.358,7.5-7.5v-16.548h24.564c0.285,0,0.516,0.231,0.516,0.516V496.481z" fill="#FFFFFF"/>
	</g>
</g>
<g>
</g>
<g>
</g>
<g>
</g>
<g>
</g>
<g>
</g>
<g>
</g>
<g>
</g>
<g>
</g>
<g>
</g>
<g>
</g>
<g>
</g>
<g>
</g>
<g>
</g>
<g>
</g>
<g>
</g>
</svg>
