<?xml version="1.0" encoding="utf-8"?>
<!-- Generator: Adobe Illustrator 22.0.1, SVG Export Plug-In . SVG Version: 6.00 Build 0)  -->
<svg version="1.1" xmlns="http://www.w3.org/2000/svg" xmlns:xlink="http://www.w3.org/1999/xlink" x="0px" y="0px"
	 viewBox="0 0 512 512" style="enable-background:new 0 0 512 512;" xml:space="preserve">
<style type="text/css">
	.st0{display:none;}
	.st1{display:inline;stroke:#000000;stroke-miterlimit:10;}
	.st2{fill:#FFFFFF;}
</style>
<g id="Ebene_2" class="st0">
	<rect x="-41" y="-26" class="st1" width="647" height="592"/>
</g>
<g id="Capa_1">
	<g>
		<g>
			<path class="st2" d="M422.8,0H89.4C40,0,0.1,40,0,89.2v333.4C0,472,40,511.9,89.2,512h333.4c49.4,0,89.2-40,89.4-89.2V89.4
				C512,40,472,0,422.8,0z M487.4,422.8c0,35.7-28.9,64.6-64.6,64.6H89.4c-35.7,0-64.6-28.9-64.7-64.6V89.4
				c0-35.7,28.9-64.6,64.6-64.7h333.4c35.7,0,64.6,28.9,64.7,64.6V422.8z"/>
		</g>
	</g>
	<g>
		<path class="st2" d="M269.6,342.2h-34.8V313c0-9.1,1.1-17.3,3.2-24.6c2.2-7.3,5.1-13.9,8.9-19.7c3.8-5.8,8.1-11.1,12.9-15.8
			c4.8-4.7,9.7-9.3,14.7-13.9l13.9-12.2c8.3-6.5,15.2-14,20.6-22.4c5.5-8.4,8.2-19,8.2-31.7c0-9.1-1.7-17.2-5-24.4
			c-3.3-7.1-7.8-13.2-13.4-18c-5.6-4.9-12.2-8.6-19.6-11.2c-7.5-2.6-15.5-3.9-24.1-3.9c-17.9,0-32.4,5.4-43.5,16.1
			c-11.1,10.7-18,24.4-20.6,40.9l-33.8-5.8c5-25.3,16.3-45.2,34.1-59.7c17.7-14.4,39.5-21.7,65.4-21.7c13.3,0,25.8,1.9,37.5,5.6
			c11.8,3.7,22,9.3,30.6,16.6c8.6,7.3,15.5,16.3,20.6,27c5.1,10.7,7.7,22.9,7.7,36.5c0,10.4-1.2,19.5-3.5,27.3
			c-2.3,7.8-5.6,14.8-9.7,21c-4.1,6.2-9,11.8-14.7,16.8c-5.6,5-11.6,10.2-17.9,15.3c-7,5.5-12.8,10.6-17.7,15.1
			c-4.8,4.6-8.7,9.3-11.7,14.4c-3,5-5.1,10.6-6.5,16.8c-1.3,6.2-2,13.6-2,22.4V342.2z M282.5,412.4c0,6.8-2.5,12.9-7.5,18.3
			s-11.4,8-19.4,8c-8,0-14.4-2.7-19.4-8c-5-5.4-7.5-11.4-7.5-18.3s2.5-12.9,7.5-18.3c5-5.4,11.4-8,19.4-8c8,0,14.4,2.7,19.4,8
			S282.5,405.5,282.5,412.4z"/>
	</g>
</g>
</svg>
